<svg width="27" height="27" viewBox="0 0 27 27" fill="none" xmlns="http://www.w3.org/2000/svg">
<path opacity="0.4" d="M13.36 2.22647C19.5001 2.22647 24.4935 7.22095 24.4935 13.3599C24.4935 19.4989 19.5001 24.4934 13.36 24.4934C7.22104 24.4934 2.22656 19.4989 2.22656 13.3599C2.22656 7.22095 7.22104 2.22647 13.36 2.22647Z" fill="white"/>
<path d="M11.7541 8.66084C11.9668 8.66084 12.1805 8.74211 12.3431 8.90466L16.2253 12.768C16.3823 12.925 16.4703 13.1376 16.4703 13.3603C16.4703 13.5818 16.3823 13.7945 16.2253 13.9515L12.3431 17.817C12.0169 18.1421 11.4891 18.1421 11.1629 17.8148C10.8378 17.4875 10.8389 16.9586 11.1652 16.6335L14.4529 13.3603L11.1652 10.087C10.8389 9.76194 10.8378 9.23421 11.1629 8.90689C11.3255 8.74211 11.5404 8.66084 11.7541 8.66084Z" fill="white"/>
</svg>
