<svg width="220" height="165" viewBox="0 0 220 165" fill="none" xmlns="http://www.w3.org/2000/svg">
<path fill-rule="evenodd" clip-rule="evenodd" d="M185.775 13.7661C171.577 7.32491 156.398 2.65219 140.529 0C138.58 3.41036 136.302 8.00698 134.733 11.6447C117.864 9.19419 101.15 9.19419 84.589 11.6447C83.0209 8.00698 80.6916 3.41036 78.7246 0C62.8397 2.65219 47.6418 7.35059 33.4456 13.8174C4.81091 55.7492 -2.94894 96.6717 0.930979 136.988C19.9229 150.755 38.3274 159.09 56.4218 164.573C60.8882 158.611 64.8734 152.271 68.307 145.576C61.7683 143.176 55.5089 140.196 49.5904 136.761C51.1623 135.624 52.6946 134.462 54.1795 133.25C90.2649 149.593 129.474 149.593 165.128 133.25C166.628 134.462 168.164 135.624 169.714 136.761C163.782 140.222 157.503 143.202 150.965 145.602C154.399 152.271 158.365 158.611 162.85 164.573C180.962 159.116 199.385 150.755 218.377 136.988C222.93 90.2552 210.597 49.7124 185.775 13.7661ZM73.2226 112.207C62.3914 112.207 53.5061 102.381 53.5061 90.4579C53.5061 78.5097 62.1992 68.6829 73.2226 68.6829C84.245 68.6829 93.1275 78.484 92.9391 90.4579C92.9565 102.381 84.245 112.207 73.2226 112.207ZM146.082 112.207C135.251 112.207 126.369 102.381 126.369 90.4579C126.369 78.5097 135.063 68.6829 146.082 68.6829C157.106 68.6829 165.99 78.484 165.799 90.4579C165.799 102.381 157.106 112.207 146.082 112.207Z" fill="white"/>
</svg>
