<svg width="47" height="42" viewBox="0 0 47 42" fill="none" xmlns="http://www.w3.org/2000/svg">
<path fill-rule="evenodd" clip-rule="evenodd" d="M41.2964 0.00171303C40.3378 -0.0178385 39.3871 0.130224 38.5273 0.432958C37.6676 0.735692 36.925 1.18388 36.3645 1.73834L23.5004 13.9848L10.6132 1.71377C10.374 1.4931 10.1044 1.29003 9.80848 1.10758C9.51434 0.921384 9.19467 0.756723 8.85431 0.616086C8.68258 0.546995 8.50609 0.484113 8.32548 0.427678C8.14513 0.371977 7.96096 0.322765 7.77367 0.280229C7.20969 0.146621 6.6205 0.0748079 6.02626 0.0672462V0.0918211C5.94205 0.0877954 5.85772 0.0850644 5.77334 0.0836294C4.21698 0.102374 2.73476 0.560757 1.65256 1.358C0.570359 2.15524 -0.0232302 3.22608 0.00229211 4.33509V37.6996C-0.0196349 38.2586 0.115944 38.8151 0.401016 39.3361C0.686088 39.8571 1.11487 40.3322 1.662 40.7331C2.20913 41.134 2.86352 41.4527 3.58647 41.6703C4.30942 41.8879 5.08626 42 5.87106 42C6.65587 42 7.43271 41.8879 8.15566 41.6703C8.87861 41.4527 9.53299 41.134 10.0801 40.7331C10.6273 40.3322 11.056 39.8571 11.3411 39.3361C11.6262 38.8151 11.7618 38.2586 11.7398 37.6996V16.7864L17.5 22.5C18 23 18.7913 23.9161 19.6369 24.401C20.4824 24.8858 21.5001 25.1942 22.5768 25.2918C23.6535 25.3894 24.747 25.2724 25.7361 24.9538C26.7251 24.6353 27.5708 24.1276 28.1793 23.4872L35.2264 16.7782V37.6996C35.2045 38.2586 35.3401 38.8151 35.6251 39.3361C35.9102 39.8571 36.339 40.3322 36.8861 40.7331C37.4332 41.134 38.0876 41.4527 38.8106 41.6703C39.5335 41.8879 40.3104 42 41.0952 42C41.88 42 42.6568 41.8879 43.3798 41.6703C44.1027 41.4527 44.7571 41.134 45.3042 40.7331C45.8514 40.3322 46.2802 39.8571 46.5652 39.3361C46.8503 38.8151 46.9859 38.2586 46.9639 37.6996V4.64637C47.0538 4.07154 46.9753 3.48968 46.7336 2.93754C46.4918 2.38541 46.092 1.87498 45.5594 1.43852C45.0268 1.00205 44.373 0.649013 43.6393 0.401709C42.9055 0.154406 42.1077 0.018207 41.2964 0.00171303Z" fill="white"/>
</svg>
